<svg width="149" height="25" viewBox="0 0 149 25" fill="none" xmlns="http://www.w3.org/2000/svg">
<path d="M7.94727 0.5L14.8848 24.5H0.447266L7.94727 0.5Z" fill="white"/>
<path d="M14.8848 0.5L24.4473 12.5L14.8848 24.5V0.5Z" fill="white"/>
<path d="M37.1948 18H34.9448L39.0414 6.36364H41.6436L45.7459 18H43.4959L40.388 8.75H40.2971L37.1948 18ZM37.2686 13.4375H43.405V15.1307H37.2686V13.4375ZM49.0627 15.2614L49.057 12.7784H49.3865L52.5229 9.27273H54.9263L51.0684 13.5682H50.6422L49.0627 15.2614ZM47.1877 18V6.36364H49.2445V18H47.1877ZM52.665 18L49.824 14.0284L51.2104 12.5795L55.1252 18H52.665ZM63.1948 11.5795L61.3198 11.7841C61.2667 11.5947 61.1739 11.4167 61.0414 11.25C60.9126 11.0833 60.7383 10.9489 60.5186 10.8466C60.2989 10.7443 60.03 10.6932 59.7118 10.6932C59.2838 10.6932 58.9239 10.786 58.6323 10.9716C58.3444 11.1572 58.2024 11.3977 58.2061 11.6932C58.2024 11.947 58.2952 12.1534 58.4846 12.3125C58.6777 12.4716 58.9959 12.6023 59.4391 12.7045L60.9277 13.0227C61.7535 13.2008 62.3671 13.483 62.7686 13.8693C63.1739 14.2557 63.3785 14.7614 63.3823 15.3864C63.3785 15.9356 63.2175 16.4205 62.8993 16.8409C62.5849 17.2576 62.1474 17.5833 61.5868 17.8182C61.0262 18.053 60.3823 18.1705 59.655 18.1705C58.5868 18.1705 57.727 17.947 57.0755 17.5C56.4239 17.0492 56.0357 16.4223 55.9107 15.6193L57.9164 15.4261C58.0073 15.8201 58.2005 16.1174 58.4959 16.3182C58.7914 16.5189 59.1758 16.6193 59.6493 16.6193C60.138 16.6193 60.53 16.5189 60.8255 16.3182C61.1247 16.1174 61.2743 15.8693 61.2743 15.5739C61.2743 15.3239 61.1777 15.1174 60.9846 14.9545C60.7952 14.7917 60.4997 14.6667 60.0982 14.5795L58.6096 14.267C57.7724 14.0928 57.1531 13.7992 56.7516 13.3864C56.3501 12.9697 56.1512 12.4432 56.155 11.8068C56.1512 11.2689 56.2971 10.803 56.5925 10.4091C56.8917 10.0114 57.3065 9.70455 57.8368 9.48864C58.3709 9.26894 58.9864 9.15909 59.6834 9.15909C60.7061 9.15909 61.5111 9.37689 62.0982 9.8125C62.6891 10.2481 63.0546 10.8371 63.1948 11.5795ZM67.5897 18.1761C67.0366 18.1761 66.5385 18.0777 66.0953 17.8807C65.656 17.6799 65.3075 17.3845 65.0499 16.9943C64.7961 16.6042 64.6692 16.1231 64.6692 15.5511C64.6692 15.0587 64.7601 14.6515 64.9419 14.3295C65.1238 14.0076 65.3719 13.75 65.6863 13.5568C66.0007 13.3636 66.3548 13.2178 66.7488 13.1193C67.1465 13.017 67.5575 12.9432 67.9817 12.8977C68.4931 12.8447 68.9078 12.7973 69.226 12.7557C69.5442 12.7102 69.7753 12.642 69.9192 12.5511C70.0669 12.4564 70.1408 12.3106 70.1408 12.1136V12.0795C70.1408 11.6515 70.0139 11.3201 69.7601 11.0852C69.5063 10.8504 69.1408 10.733 68.6635 10.733C68.1597 10.733 67.7601 10.8428 67.4647 11.0625C67.173 11.2822 66.976 11.5417 66.8738 11.8409L64.9533 11.5682C65.1048 11.0379 65.3548 10.5947 65.7033 10.2386C66.0518 9.87879 66.4779 9.60985 66.9817 9.43182C67.4855 9.25 68.0423 9.15909 68.6522 9.15909C69.0726 9.15909 69.4912 9.20833 69.9078 9.30682C70.3245 9.4053 70.7052 9.56818 71.0499 9.79545C71.3946 10.0189 71.6711 10.3239 71.8794 10.7102C72.0916 11.0966 72.1976 11.5795 72.1976 12.1591V18H70.2203V16.8011H70.1522C70.0272 17.0436 69.851 17.2708 69.6238 17.483C69.4003 17.6913 69.1181 17.8598 68.7772 17.9886C68.44 18.1136 68.0442 18.1761 67.5897 18.1761ZM68.1238 16.6648C68.5366 16.6648 68.8946 16.5833 69.1976 16.4205C69.5007 16.2538 69.7336 16.0341 69.8965 15.7614C70.0632 15.4886 70.1465 15.1913 70.1465 14.8693V13.8409C70.0821 13.8939 69.9722 13.9432 69.8169 13.9886C69.6654 14.0341 69.495 14.0739 69.3056 14.108C69.1162 14.142 68.9287 14.1723 68.7431 14.1989C68.5575 14.2254 68.3965 14.2481 68.2601 14.267C67.9533 14.3087 67.6787 14.3769 67.4363 14.4716C67.1938 14.5663 67.0025 14.6989 66.8624 14.8693C66.7222 15.036 66.6522 15.2519 66.6522 15.517C66.6522 15.8958 66.7904 16.1818 67.0669 16.375C67.3435 16.5682 67.6957 16.6648 68.1238 16.6648ZM74.2658 18V9.27273H76.2601V10.7273H76.351C76.5101 10.2235 76.7828 9.83523 77.1692 9.5625C77.5594 9.28598 78.0044 9.14773 78.5044 9.14773C78.6181 9.14773 78.745 9.15341 78.8851 9.16477C79.0291 9.17235 79.1484 9.18561 79.2431 9.20455V11.0966C79.156 11.0663 79.0177 11.0398 78.8283 11.017C78.6427 10.9905 78.4628 10.9773 78.2885 10.9773C77.9135 10.9773 77.5764 11.0587 77.2772 11.2216C76.9817 11.3807 76.7488 11.6023 76.5783 11.8864C76.4078 12.1705 76.3226 12.4981 76.3226 12.8693V18H74.2658ZM82.9647 18.1761C82.4116 18.1761 81.9135 18.0777 81.4703 17.8807C81.031 17.6799 80.6825 17.3845 80.4249 16.9943C80.1711 16.6042 80.0442 16.1231 80.0442 15.5511C80.0442 15.0587 80.1351 14.6515 80.3169 14.3295C80.4988 14.0076 80.7469 13.75 81.0613 13.5568C81.3757 13.3636 81.7298 13.2178 82.1238 13.1193C82.5215 13.017 82.9325 12.9432 83.3567 12.8977C83.8681 12.8447 84.2828 12.7973 84.601 12.7557C84.9192 12.7102 85.1503 12.642 85.2942 12.5511C85.4419 12.4564 85.5158 12.3106 85.5158 12.1136V12.0795C85.5158 11.6515 85.3889 11.3201 85.1351 11.0852C84.8813 10.8504 84.5158 10.733 84.0385 10.733C83.5347 10.733 83.1351 10.8428 82.8397 11.0625C82.548 11.2822 82.351 11.5417 82.2488 11.8409L80.3283 11.5682C80.4798 11.0379 80.7298 10.5947 81.0783 10.2386C81.4268 9.87879 81.8529 9.60985 82.3567 9.43182C82.8605 9.25 83.4173 9.15909 84.0272 9.15909C84.4476 9.15909 84.8662 9.20833 85.2828 9.30682C85.6995 9.4053 86.0802 9.56818 86.4249 9.79545C86.7696 10.0189 87.0461 10.3239 87.2544 10.7102C87.4666 11.0966 87.5726 11.5795 87.5726 12.1591V18H85.5953V16.8011H85.5272C85.4022 17.0436 85.226 17.2708 84.9988 17.483C84.7753 17.6913 84.4931 17.8598 84.1522 17.9886C83.815 18.1136 83.4192 18.1761 82.9647 18.1761ZM83.4988 16.6648C83.9116 16.6648 84.2696 16.5833 84.5726 16.4205C84.8757 16.2538 85.1086 16.0341 85.2715 15.7614C85.4382 15.4886 85.5215 15.1913 85.5215 14.8693V13.8409C85.4571 13.8939 85.3472 13.9432 85.1919 13.9886C85.0404 14.0341 84.87 14.0739 84.6806 14.108C84.4912 14.142 84.3037 14.1723 84.1181 14.1989C83.9325 14.2254 83.7715 14.2481 83.6351 14.267C83.3283 14.3087 83.0537 14.3769 82.8113 14.4716C82.5688 14.5663 82.3775 14.6989 82.2374 14.8693C82.0972 15.036 82.0272 15.2519 82.0272 15.517C82.0272 15.8958 82.1654 16.1818 82.4419 16.375C82.7185 16.5682 83.0707 16.6648 83.4988 16.6648ZM97.6436 18H93.7005V6.36364H97.7232C98.8785 6.36364 99.8709 6.59659 100.7 7.0625C101.534 7.52462 102.174 8.18939 102.621 9.05682C103.068 9.92424 103.291 10.9621 103.291 12.1705C103.291 13.3826 103.066 14.4242 102.615 15.2955C102.168 16.1667 101.522 16.8352 100.678 17.3011C99.8368 17.767 98.8255 18 97.6436 18ZM95.8084 16.1761H97.5414C98.352 16.1761 99.0281 16.0284 99.5698 15.733C100.111 15.4337 100.519 14.9886 100.791 14.3977C101.064 13.803 101.2 13.0606 101.2 12.1705C101.2 11.2803 101.064 10.5417 100.791 9.95455C100.519 9.36364 100.115 8.92235 99.5811 8.63068C99.0508 8.33523 98.3917 8.1875 97.6039 8.1875H95.8084V16.1761ZM105.203 18V9.27273H107.26V18H105.203ZM106.237 8.03409C105.912 8.03409 105.631 7.92614 105.396 7.71023C105.162 7.49053 105.044 7.22727 105.044 6.92045C105.044 6.60985 105.162 6.34659 105.396 6.13068C105.631 5.91098 105.912 5.80114 106.237 5.80114C106.567 5.80114 106.847 5.91098 107.078 6.13068C107.313 6.34659 107.431 6.60985 107.431 6.92045C107.431 7.22727 107.313 7.49053 107.078 7.71023C106.847 7.92614 106.567 8.03409 106.237 8.03409ZM116.273 11.5795L114.398 11.7841C114.345 11.5947 114.252 11.4167 114.119 11.25C113.991 11.0833 113.816 10.9489 113.597 10.8466C113.377 10.7443 113.108 10.6932 112.79 10.6932C112.362 10.6932 112.002 10.786 111.71 10.9716C111.423 11.1572 111.28 11.3977 111.284 11.6932C111.28 11.947 111.373 12.1534 111.563 12.3125C111.756 12.4716 112.074 12.6023 112.517 12.7045L114.006 13.0227C114.832 13.2008 115.445 13.483 115.847 13.8693C116.252 14.2557 116.457 14.7614 116.46 15.3864C116.457 15.9356 116.296 16.4205 115.977 16.8409C115.663 17.2576 115.226 17.5833 114.665 17.8182C114.104 18.053 113.46 18.1705 112.733 18.1705C111.665 18.1705 110.805 17.947 110.154 17.5C109.502 17.0492 109.114 16.4223 108.989 15.6193L110.994 15.4261C111.085 15.8201 111.279 16.1174 111.574 16.3182C111.869 16.5189 112.254 16.6193 112.727 16.6193C113.216 16.6193 113.608 16.5189 113.904 16.3182C114.203 16.1174 114.352 15.8693 114.352 15.5739C114.352 15.3239 114.256 15.1174 114.063 14.9545C113.873 14.7917 113.578 14.6667 113.176 14.5795L111.688 14.267C110.851 14.0928 110.231 13.7992 109.83 13.3864C109.428 12.9697 109.229 12.4432 109.233 11.8068C109.229 11.2689 109.375 10.803 109.671 10.4091C109.97 10.0114 110.385 9.70455 110.915 9.48864C111.449 9.26894 112.065 9.15909 112.762 9.15909C113.784 9.15909 114.589 9.37689 115.176 9.8125C115.767 10.2481 116.133 10.8371 116.273 11.5795ZM120.031 15.2614L120.026 12.7784H120.355L123.492 9.27273H125.895L122.037 13.5682H121.611L120.031 15.2614ZM118.156 18V6.36364H120.213V18H118.156ZM123.634 18L120.793 14.0284L122.179 12.5795L126.094 18H123.634ZM127.266 18V9.27273H129.26V10.7273H129.351C129.51 10.2235 129.783 9.83523 130.169 9.5625C130.559 9.28598 131.004 9.14773 131.504 9.14773C131.618 9.14773 131.745 9.15341 131.885 9.16477C132.029 9.17235 132.148 9.18561 132.243 9.20455V11.0966C132.156 11.0663 132.018 11.0398 131.828 11.017C131.643 10.9905 131.463 10.9773 131.289 10.9773C130.914 10.9773 130.576 11.0587 130.277 11.2216C129.982 11.3807 129.749 11.6023 129.578 11.8864C129.408 12.1705 129.323 12.4981 129.323 12.8693V18H127.266ZM137.114 18.1705C136.239 18.1705 135.483 17.9886 134.847 17.625C134.214 17.2576 133.727 16.7386 133.387 16.0682C133.046 15.3939 132.875 14.6004 132.875 13.6875C132.875 12.7898 133.046 12.0019 133.387 11.3239C133.731 10.642 134.212 10.1117 134.83 9.73295C135.447 9.35038 136.173 9.15909 137.006 9.15909C137.544 9.15909 138.051 9.24621 138.529 9.42045C139.01 9.59091 139.434 9.85606 139.801 10.2159C140.173 10.5758 140.464 11.0341 140.676 11.5909C140.888 12.1439 140.994 12.803 140.994 13.5682V14.1989H133.841V12.8125H139.023C139.019 12.4186 138.934 12.0682 138.767 11.7614C138.601 11.4508 138.368 11.2064 138.068 11.0284C137.773 10.8504 137.428 10.7614 137.034 10.7614C136.614 10.7614 136.244 10.8636 135.926 11.0682C135.608 11.2689 135.36 11.5341 135.182 11.8636C135.008 12.1894 134.919 12.5473 134.915 12.9375V14.1477C134.915 14.6553 135.008 15.0909 135.193 15.4545C135.379 15.8144 135.638 16.0909 135.972 16.2841C136.305 16.4735 136.695 16.5682 137.142 16.5682C137.441 16.5682 137.712 16.5265 137.955 16.4432C138.197 16.3561 138.407 16.2292 138.585 16.0625C138.763 15.8958 138.898 15.6894 138.989 15.4432L140.909 15.6591C140.788 16.1667 140.557 16.6098 140.216 16.9886C139.879 17.3636 139.447 17.6553 138.921 17.8636C138.394 18.0682 137.792 18.1705 137.114 18.1705ZM147.093 9.27273V10.8636H142.075V9.27273H147.093ZM143.314 7.18182H145.371V15.375C145.371 15.6515 145.413 15.8636 145.496 16.0114C145.583 16.1553 145.697 16.2538 145.837 16.3068C145.977 16.3598 146.132 16.3864 146.303 16.3864C146.432 16.3864 146.549 16.3769 146.655 16.358C146.765 16.339 146.848 16.322 146.905 16.3068L147.252 17.9148C147.142 17.9527 146.985 17.9943 146.78 18.0398C146.579 18.0852 146.333 18.1117 146.041 18.1193C145.526 18.1345 145.062 18.0568 144.649 17.8864C144.236 17.7121 143.909 17.4432 143.666 17.0795C143.428 16.7159 143.31 16.2614 143.314 15.7159V7.18182Z" fill="white"/>
</svg>
